<svg width="195" height="38" viewBox="0 0 195 38" fill="none" xmlns="http://www.w3.org/2000/svg">
<g clip-path="url(#clip0)">
<path fill-rule="evenodd" clip-rule="evenodd" d="M22.6014 9.90657L27.7425 7.07608C25.9965 2.63528 21.5828 0 15.7142 0C6.01405 0 0 6.05124 0 14.8355C0 24.4492 7.95403 29.7684 15.5202 29.7684C22.4559 29.7684 27.015 26.4989 28.955 23.7659V13.4201L14.0166 13.4201L14.0166 18.2027H23.3773L23.3289 21.4723C23.3289 21.4723 20.5644 24.1075 15.6173 24.1075C10.2821 24.1075 7.22659 20.4475 7.22659 14.689C7.22659 8.88171 10.2821 5.22171 15.5687 5.22171C18.6729 5.22171 21.0008 7.12495 22.6014 9.90657Z" fill="#F46152"/>
<path fill-rule="evenodd" clip-rule="evenodd" d="M31.5901 36.6791V31.686C32.7236 31.8828 33.4661 31.922 34.2479 31.922C36.593 31.922 38.3516 31.0965 39.1334 29.4455L39.2897 28.8559L29.9876 9.23862L37.3745 9.23862C37.3745 9.23862 42.5337 22.6442 42.69 23.4698H42.8073C42.9246 22.762 47.8884 9.23862 47.8884 9.23862H54.8061L45.9731 29.7993C43.7844 34.9099 40.5405 36.954 34.9122 36.954C34.0525 36.954 32.6845 36.8755 31.5901 36.6791Z" fill="#F46152"/>
<path fill-rule="evenodd" clip-rule="evenodd" d="M62.1923 9.83654V13.8227C63.493 10.7534 65.8654 9.23862 69.2704 9.23862C72.6372 9.23862 74.8942 10.7534 76.042 13.8628C77.6107 10.793 80.174 9.23862 83.5407 9.23862C88.3231 9.23862 91.0011 12.3477 91.0011 17.9689V29.7685L84.459 29.7685V19.2047C84.459 15.9357 83.2347 14.3413 80.7862 14.3413C78.2228 14.3413 76.6926 16.175 76.6926 19.3241V29.7685H70.1503V19.2047C70.1503 15.9357 68.9259 14.3413 66.4774 14.3413C63.914 14.3413 62.3836 16.2146 62.3836 19.4439V29.7685H55.8415V9.83654L62.1923 9.83654Z" fill="#F46152"/>
<path fill-rule="evenodd" clip-rule="evenodd" d="M112.416 19.3623C112.416 15.7438 110.579 13.6651 107.418 13.6651C104.331 13.6651 102.309 15.6284 102.309 19.0543V19.8628C102.309 23.0962 104.331 25.2137 107.381 25.2137C110.505 25.2137 112.416 22.9806 112.416 19.3623ZM96.1714 9.81599L102.272 9.81599V13.0492C103.779 10.5472 106.536 9.23862 109.77 9.23862C115.283 9.23862 118.922 13.2419 118.922 19.3623C118.922 25.5598 115.099 29.64 109.513 29.64C106.426 29.64 104 28.4085 102.456 26.368V36.954H96.1714V9.81599Z" fill="#F46152"/>
<path fill-rule="evenodd" clip-rule="evenodd" d="M137.928 21.5177V20.2784L132.678 20.8204C129.786 21.1693 128.683 21.9437 128.683 23.4546C128.683 24.8878 130.053 25.74 132.297 25.74C135.645 25.74 137.928 24.0743 137.928 21.5177ZM122.025 23.8808C122.025 22.0988 122.748 20.6269 124.08 19.6585C125.411 18.7287 127.314 18.1476 130.699 17.7994L137.776 17.1405V16.5594C137.776 14.3904 136.33 13.3445 133.743 13.3445C131.118 13.3445 129.558 14.3904 129.292 16.3271H122.634C123.128 11.9112 127.352 9.23862 133.781 9.23862C141.009 9.23862 144.319 11.9112 144.319 17.5279V23.5319C144.319 26.0112 144.471 27.8319 144.776 29.1875H138.346C138.194 28.2578 138.08 27.057 138.08 25.895C136.825 28.3353 133.857 29.7685 129.824 29.7685C125.031 29.7685 122.025 27.5217 122.025 23.8808Z" fill="#F46152"/>
<path fill-rule="evenodd" clip-rule="evenodd" d="M147.876 25.1591L151.387 22.1376C153.181 24.3068 155.891 25.4691 159.86 25.4691C162.532 25.4691 163.715 24.8878 163.715 23.687C163.715 22.6026 163.142 22.1761 160.967 21.9438L155.891 21.4404C151.235 20.8595 149.021 18.8837 149.021 15.4751C149.021 11.5239 152.608 9.23862 159.02 9.23862C163.638 9.23862 167.378 10.5555 169.516 12.9186L166.463 16.0946C164.516 14.3129 162.112 13.4605 158.677 13.4605C156.158 13.4605 154.975 13.9644 154.975 15.0877C154.975 16.0172 155.662 16.4821 157.417 16.6759L163.028 17.2569C167.722 17.7994 169.592 19.7745 169.592 23.1835C169.592 27.2894 166.195 29.7685 159.555 29.7685C154.25 29.7685 150.242 28.1803 147.876 25.1591Z" fill="#F46152"/>
<path fill-rule="evenodd" clip-rule="evenodd" d="M170.628 25.1591L174.141 22.1376C175.933 24.3068 178.643 25.4691 182.613 25.4691C185.285 25.4691 186.468 24.8878 186.468 23.687C186.468 22.6026 185.894 22.1761 183.72 21.9438L178.643 21.4404C173.987 20.8595 171.773 18.8837 171.773 15.4751C171.773 11.5239 175.362 9.23862 181.774 9.23862C186.392 9.23862 190.132 10.5555 192.268 12.9186L189.215 16.0946C187.269 14.3129 184.865 13.4605 181.43 13.4605C178.911 13.4605 177.728 13.9644 177.728 15.0877C177.728 16.0172 178.415 16.4821 180.171 16.6759L185.78 17.2569C190.474 17.7994 192.344 19.7745 192.344 23.1835C192.344 27.2894 188.949 29.7685 182.307 29.7685C177.002 29.7685 172.996 28.1803 170.628 25.1591Z" fill="#F46152"/>
</g>
<defs>
<clipPath id="clip0">
<rect width="194.957" height="38" fill="white"/>
</clipPath>
</defs>
</svg>
